%TF.GenerationSoftware,KiCad,Pcbnew,6.0.11-2627ca5db0~126~ubuntu22.04.1*%
%TF.CreationDate,2023-02-26T22:25:55+07:00*%
%TF.ProjectId,macro,6d616372-6f2e-46b6-9963-61645f706362,rev?*%
%TF.SameCoordinates,Original*%
%TF.FileFunction,Soldermask,Top*%
%TF.FilePolarity,Negative*%
%FSLAX46Y46*%
G04 Gerber Fmt 4.6, Leading zero omitted, Abs format (unit mm)*
G04 Created by KiCad (PCBNEW 6.0.11-2627ca5db0~126~ubuntu22.04.1) date 2023-02-26 22:25:55*
%MOMM*%
%LPD*%
G01*
G04 APERTURE LIST*
%ADD10C,1.550000*%
%ADD11C,1.750000*%
%ADD12C,4.000000*%
%ADD13R,1.600000X1.600000*%
%ADD14O,1.600000X1.600000*%
%ADD15C,2.000000*%
%ADD16R,2.000000X3.200000*%
%ADD17R,2.000000X2.000000*%
%ADD18C,3.800000*%
G04 APERTURE END LIST*
D10*
%TO.C,K6*%
X125515000Y-128345000D03*
D11*
X128055000Y-133425000D03*
X117895000Y-133425000D03*
D10*
X119165000Y-130885000D03*
D12*
X122975000Y-133425000D03*
%TD*%
D13*
%TO.C,D1*%
X67500000Y-130160000D03*
D14*
X67500000Y-122540000D03*
%TD*%
D13*
%TO.C,U1*%
X57680000Y-90520000D03*
D14*
X57680000Y-93060000D03*
X57680000Y-95600000D03*
X57680000Y-98140000D03*
X57680000Y-100680000D03*
X57680000Y-103220000D03*
X57680000Y-105760000D03*
X57680000Y-108300000D03*
X57680000Y-110840000D03*
X57680000Y-113380000D03*
X57680000Y-115920000D03*
X57680000Y-118460000D03*
X72920000Y-118460000D03*
X72920000Y-115920000D03*
X72920000Y-113380000D03*
X72920000Y-110840000D03*
X72920000Y-108300000D03*
X72920000Y-105760000D03*
X72920000Y-103220000D03*
X72920000Y-100680000D03*
X72920000Y-98140000D03*
X72920000Y-95600000D03*
X72920000Y-93060000D03*
X72920000Y-90520000D03*
%TD*%
D13*
%TO.C,D5*%
X67500000Y-134025000D03*
D14*
X67500000Y-141645000D03*
%TD*%
D15*
%TO.C,RE2*%
X125480000Y-102500000D03*
X120480000Y-102500000D03*
D16*
X117380000Y-95500000D03*
X128580000Y-95500000D03*
D15*
X122980000Y-88000000D03*
X120480000Y-88000000D03*
D17*
X125480000Y-88000000D03*
%TD*%
D10*
%TO.C,K1*%
X81065000Y-111835000D03*
D11*
X89955000Y-114375000D03*
D12*
X84875000Y-114375000D03*
D10*
X87415000Y-109295000D03*
D11*
X79795000Y-114375000D03*
%TD*%
%TO.C,K2*%
X109005000Y-114375000D03*
D10*
X100115000Y-111835000D03*
D11*
X98845000Y-114375000D03*
D10*
X106465000Y-109295000D03*
D12*
X103925000Y-114375000D03*
%TD*%
D11*
%TO.C,K3*%
X128055000Y-114375000D03*
X117895000Y-114375000D03*
D12*
X122975000Y-114375000D03*
D10*
X119165000Y-111835000D03*
X125515000Y-109295000D03*
%TD*%
D13*
%TO.C,D3*%
X58975000Y-134050000D03*
D14*
X58975000Y-141670000D03*
%TD*%
D11*
%TO.C,K5*%
X98845000Y-133425000D03*
D10*
X100115000Y-130885000D03*
D11*
X109005000Y-133425000D03*
D10*
X106465000Y-128345000D03*
D12*
X103925000Y-133425000D03*
%TD*%
D13*
%TO.C,D_re1*%
X63250000Y-130170000D03*
D14*
X63250000Y-122550000D03*
%TD*%
D13*
%TO.C,D_re2*%
X59000000Y-130185000D03*
D14*
X59000000Y-122565000D03*
%TD*%
D18*
%TO.C,*%
X134400000Y-85650000D03*
%TD*%
%TO.C,REF\u002A\u002A*%
X53925000Y-144850000D03*
%TD*%
%TO.C,REF\u002A\u002A*%
X53925000Y-85650000D03*
%TD*%
D13*
%TO.C,D4*%
X71750000Y-134040000D03*
D14*
X71750000Y-141660000D03*
%TD*%
D13*
%TO.C,D6*%
X63250000Y-134025000D03*
D14*
X63250000Y-141645000D03*
%TD*%
D11*
%TO.C,K4*%
X89955000Y-133425000D03*
D10*
X81065000Y-130885000D03*
D12*
X84875000Y-133425000D03*
D10*
X87415000Y-128345000D03*
D11*
X79795000Y-133425000D03*
%TD*%
D13*
%TO.C,D2*%
X71750000Y-130160000D03*
D14*
X71750000Y-122540000D03*
%TD*%
D18*
%TO.C,REF\u002A\u002A*%
X134400000Y-144850000D03*
%TD*%
D15*
%TO.C,RE1*%
X87250000Y-102500000D03*
X82250000Y-102500000D03*
D16*
X90350000Y-95500000D03*
X79150000Y-95500000D03*
D15*
X84750000Y-88000000D03*
X82250000Y-88000000D03*
D17*
X87250000Y-88000000D03*
%TD*%
M02*
