M48
; DRILL file {KiCad 6.0.11-2627ca5db0~126~ubuntu22.04.1} date Chủ nhật, 26 Tháng 2 Năm 2023 22:25:52 +07
; FORMAT={-:-/ absolute / inch / decimal}
; #@! TF.CreationDate,2023-02-26T22:25:52+07:00
; #@! TF.GenerationSoftware,Kicad,Pcbnew,6.0.11-2627ca5db0~126~ubuntu22.04.1
; #@! TF.FileFunction,Plated,1,2,PTH
FMAT,2
INCH
; #@! TA.AperFunction,Plated,PTH,ComponentDrill
T1C0.0315
; #@! TA.AperFunction,Plated,PTH,ComponentDrill
T2C0.0394
; #@! TA.AperFunction,Plated,PTH,ComponentDrill
T3C0.0591
; #@! TA.AperFunction,Plated,PTH,ComponentDrill
T4C0.0866
%
G90
G05
T1
X2.2709Y-3.5638
X2.2709Y-3.6638
X2.2709Y-3.7638
X2.2709Y-3.8638
X2.2709Y-3.9638
X2.2709Y-4.0638
X2.2709Y-4.1638
X2.2709Y-4.2638
X2.2709Y-4.3638
X2.2709Y-4.4638
X2.2709Y-4.5638
X2.2709Y-4.6638
X2.3219Y-5.2776
X2.3219Y-5.5776
X2.3228Y-4.8254
X2.3228Y-5.1254
X2.4902Y-4.8248
X2.4902Y-5.1248
X2.4902Y-5.2766
X2.4902Y-5.5766
X2.6575Y-4.8244
X2.6575Y-5.1244
X2.6575Y-5.2766
X2.6575Y-5.5766
X2.8248Y-4.8244
X2.8248Y-5.1244
X2.8248Y-5.2772
X2.8248Y-5.5772
X2.8709Y-3.5638
X2.8709Y-3.6638
X2.8709Y-3.7638
X2.8709Y-3.8638
X2.8709Y-3.9638
X2.8709Y-4.0638
X2.8709Y-4.1638
X2.8709Y-4.2638
X2.8709Y-4.3638
X2.8709Y-4.4638
X2.8709Y-4.5638
X2.8709Y-4.6638
T2
X3.2382Y-3.4646
X3.2382Y-4.0354
X3.3366Y-3.4646
X3.435Y-3.4646
X3.435Y-4.0354
X4.7433Y-3.4646
X4.7433Y-4.0354
X4.8417Y-3.4646
X4.9402Y-3.4646
X4.9402Y-4.0354
T3
X3.1915Y-4.403
X3.1915Y-5.153
X3.4415Y-4.303
X3.4415Y-5.053
X3.9415Y-4.403
X3.9415Y-5.153
X4.1915Y-4.303
X4.1915Y-5.053
X4.6915Y-4.403
X4.6915Y-5.153
X4.9415Y-4.303
X4.9415Y-5.053
T4
X2.123Y-3.372
X2.123Y-5.7028
X5.2913Y-3.372
X5.2913Y-5.7028
T3
G00X3.1161Y-3.7343
M15
G01X3.1161Y-3.7854
M16
G05
G00X3.5571Y-3.7343
M15
G01X3.5571Y-3.7854
M16
G05
G00X4.6213Y-3.7343
M15
G01X4.6213Y-3.7854
M16
G05
G00X5.0622Y-3.7343
M15
G01X5.0622Y-3.7854
M16
G05
T0
M30
