%TF.GenerationSoftware,KiCad,Pcbnew,6.0.11-2627ca5db0~126~ubuntu22.04.1*%
%TF.CreationDate,2023-02-26T22:25:55+07:00*%
%TF.ProjectId,macro,6d616372-6f2e-46b6-9963-61645f706362,rev?*%
%TF.SameCoordinates,Original*%
%TF.FileFunction,Copper,L1,Top*%
%TF.FilePolarity,Positive*%
%FSLAX46Y46*%
G04 Gerber Fmt 4.6, Leading zero omitted, Abs format (unit mm)*
G04 Created by KiCad (PCBNEW 6.0.11-2627ca5db0~126~ubuntu22.04.1) date 2023-02-26 22:25:55*
%MOMM*%
%LPD*%
G01*
G04 APERTURE LIST*
%TA.AperFunction,ComponentPad*%
%ADD10C,2.500000*%
%TD*%
%TA.AperFunction,ComponentPad*%
%ADD11R,1.600000X1.600000*%
%TD*%
%TA.AperFunction,ComponentPad*%
%ADD12O,1.600000X1.600000*%
%TD*%
%TA.AperFunction,ComponentPad*%
%ADD13C,2.000000*%
%TD*%
%TA.AperFunction,ComponentPad*%
%ADD14R,2.000000X3.200000*%
%TD*%
%TA.AperFunction,ComponentPad*%
%ADD15R,2.000000X2.000000*%
%TD*%
%TA.AperFunction,ComponentPad*%
%ADD16C,3.800000*%
%TD*%
%TA.AperFunction,Conductor*%
%ADD17C,0.300000*%
%TD*%
G04 APERTURE END LIST*
D10*
%TO.P,K6,1*%
%TO.N,col2*%
X119165000Y-130885000D03*
%TO.P,K6,2*%
%TO.N,Net-(D6-Pad2)*%
X125515000Y-128345000D03*
%TD*%
D11*
%TO.P,D1,1,K*%
%TO.N,row1*%
X67500000Y-130160000D03*
D12*
%TO.P,D1,2,A*%
%TO.N,Net-(D1-Pad2)*%
X67500000Y-122540000D03*
%TD*%
D11*
%TO.P,U1,1,TX*%
%TO.N,unconnected-(U1-Pad1)*%
X57680000Y-90520000D03*
D12*
%TO.P,U1,2,RX*%
%TO.N,unconnected-(U1-Pad2)*%
X57680000Y-93060000D03*
%TO.P,U1,3,GND*%
%TO.N,GND*%
X57680000Y-95600000D03*
%TO.P,U1,4,GND*%
X57680000Y-98140000D03*
%TO.P,U1,5,SDA*%
%TO.N,ENC2A*%
X57680000Y-100680000D03*
%TO.P,U1,6,SCL*%
%TO.N,ENC2B*%
X57680000Y-103220000D03*
%TO.P,U1,7,D4*%
%TO.N,ENC1A*%
X57680000Y-105760000D03*
%TO.P,U1,8,C6*%
%TO.N,ENC1B*%
X57680000Y-108300000D03*
%TO.P,U1,9,D7*%
%TO.N,unconnected-(U1-Pad9)*%
X57680000Y-110840000D03*
%TO.P,U1,10,E6*%
%TO.N,unconnected-(U1-Pad10)*%
X57680000Y-113380000D03*
%TO.P,U1,11,B4*%
%TO.N,unconnected-(U1-Pad11)*%
X57680000Y-115920000D03*
%TO.P,U1,12,B5*%
%TO.N,unconnected-(U1-Pad12)*%
X57680000Y-118460000D03*
%TO.P,U1,13,B6*%
%TO.N,unconnected-(U1-Pad13)*%
X72920000Y-118460000D03*
%TO.P,U1,14,B2*%
%TO.N,unconnected-(U1-Pad14)*%
X72920000Y-115920000D03*
%TO.P,U1,15,B3*%
%TO.N,row0*%
X72920000Y-113380000D03*
%TO.P,U1,16,B1*%
%TO.N,row1*%
X72920000Y-110840000D03*
%TO.P,U1,17,F7*%
%TO.N,row2*%
X72920000Y-108300000D03*
%TO.P,U1,18,F6*%
%TO.N,col0*%
X72920000Y-105760000D03*
%TO.P,U1,19,F5*%
%TO.N,col1*%
X72920000Y-103220000D03*
%TO.P,U1,20,F4*%
%TO.N,col2*%
X72920000Y-100680000D03*
%TO.P,U1,21,VCC*%
%TO.N,unconnected-(U1-Pad21)*%
X72920000Y-98140000D03*
%TO.P,U1,22,RST*%
%TO.N,Net-(U1-Pad22)*%
X72920000Y-95600000D03*
%TO.P,U1,23,GND*%
%TO.N,GND*%
X72920000Y-93060000D03*
%TO.P,U1,24,RAW*%
%TO.N,unconnected-(U1-Pad24)*%
X72920000Y-90520000D03*
%TD*%
D11*
%TO.P,D5,1,K*%
%TO.N,row2*%
X67500000Y-134025000D03*
D12*
%TO.P,D5,2,A*%
%TO.N,Net-(D5-Pad2)*%
X67500000Y-141645000D03*
%TD*%
D13*
%TO.P,RE2,S2,S2*%
%TO.N,Net-(D_re2-Pad2)*%
X125480000Y-102500000D03*
%TO.P,RE2,S1,S1*%
%TO.N,col2*%
X120480000Y-102500000D03*
D14*
%TO.P,RE2,MP*%
%TO.N,N/C*%
X117380000Y-95500000D03*
X128580000Y-95500000D03*
D13*
%TO.P,RE2,C,C*%
%TO.N,GND*%
X122980000Y-88000000D03*
%TO.P,RE2,B,B*%
%TO.N,ENC2B*%
X120480000Y-88000000D03*
D15*
%TO.P,RE2,A,A*%
%TO.N,ENC2A*%
X125480000Y-88000000D03*
%TD*%
D10*
%TO.P,K1,1*%
%TO.N,col0*%
X81065000Y-111835000D03*
%TO.P,K1,2*%
%TO.N,Net-(D1-Pad2)*%
X87415000Y-109295000D03*
%TD*%
%TO.P,K2,1*%
%TO.N,col1*%
X100115000Y-111835000D03*
%TO.P,K2,2*%
%TO.N,Net-(D2-Pad2)*%
X106465000Y-109295000D03*
%TD*%
%TO.P,K3,1*%
%TO.N,col2*%
X119165000Y-111835000D03*
%TO.P,K3,2*%
%TO.N,Net-(D3-Pad2)*%
X125515000Y-109295000D03*
%TD*%
D11*
%TO.P,D3,1,K*%
%TO.N,row1*%
X58975000Y-134050000D03*
D12*
%TO.P,D3,2,A*%
%TO.N,Net-(D3-Pad2)*%
X58975000Y-141670000D03*
%TD*%
D10*
%TO.P,K5,1*%
%TO.N,col1*%
X100115000Y-130885000D03*
%TO.P,K5,2*%
%TO.N,Net-(D5-Pad2)*%
X106465000Y-128345000D03*
%TD*%
D11*
%TO.P,D_re1,1,K*%
%TO.N,row0*%
X63250000Y-130170000D03*
D12*
%TO.P,D_re1,2,A*%
%TO.N,Net-(D_re1-Pad2)*%
X63250000Y-122550000D03*
%TD*%
D11*
%TO.P,D_re2,1,K*%
%TO.N,row0*%
X59000000Y-130185000D03*
D12*
%TO.P,D_re2,2,A*%
%TO.N,Net-(D_re2-Pad2)*%
X59000000Y-122565000D03*
%TD*%
D16*
%TO.P,,1*%
%TO.N,N/C*%
X134400000Y-85650000D03*
%TD*%
%TO.P,REF\u002A\u002A,1*%
%TO.N,N/C*%
X53925000Y-144850000D03*
%TD*%
%TO.P,REF\u002A\u002A,1*%
%TO.N,N/C*%
X53925000Y-85650000D03*
%TD*%
D11*
%TO.P,D4,1,K*%
%TO.N,row2*%
X71750000Y-134040000D03*
D12*
%TO.P,D4,2,A*%
%TO.N,Net-(D4-Pad2)*%
X71750000Y-141660000D03*
%TD*%
D11*
%TO.P,D6,1,K*%
%TO.N,row2*%
X63250000Y-134025000D03*
D12*
%TO.P,D6,2,A*%
%TO.N,Net-(D6-Pad2)*%
X63250000Y-141645000D03*
%TD*%
D10*
%TO.P,K4,1*%
%TO.N,col0*%
X81065000Y-130885000D03*
%TO.P,K4,2*%
%TO.N,Net-(D4-Pad2)*%
X87415000Y-128345000D03*
%TD*%
D11*
%TO.P,D2,1,K*%
%TO.N,row1*%
X71750000Y-130160000D03*
D12*
%TO.P,D2,2,A*%
%TO.N,Net-(D2-Pad2)*%
X71750000Y-122540000D03*
%TD*%
D16*
%TO.P,REF\u002A\u002A,1*%
%TO.N,N/C*%
X134400000Y-144850000D03*
%TD*%
D13*
%TO.P,RE1,S2,S2*%
%TO.N,Net-(D_re1-Pad2)*%
X87250000Y-102500000D03*
%TO.P,RE1,S1,S1*%
%TO.N,col0*%
X82250000Y-102500000D03*
D14*
%TO.P,RE1,MP*%
%TO.N,N/C*%
X90350000Y-95500000D03*
X79150000Y-95500000D03*
D13*
%TO.P,RE1,C,C*%
%TO.N,GND*%
X84750000Y-88000000D03*
%TO.P,RE1,B,B*%
%TO.N,ENC1B*%
X82250000Y-88000000D03*
D15*
%TO.P,RE1,A,A*%
%TO.N,ENC1A*%
X87250000Y-88000000D03*
%TD*%
D17*
%TO.N,col2*%
X120227588Y-102752412D02*
X119165000Y-103815000D01*
X119165000Y-103815000D02*
X119165000Y-111835000D01*
%TO.N,Net-(D_re2-Pad2)*%
X59000000Y-122565000D02*
X64275000Y-117290000D01*
X64275000Y-117290000D02*
X64275000Y-90285000D01*
X64275000Y-90285000D02*
X69510000Y-85050000D01*
X96030000Y-85050000D02*
X110570000Y-99590000D01*
X110570000Y-99590000D02*
X122570000Y-99590000D01*
X69510000Y-85050000D02*
X96030000Y-85050000D01*
X122570000Y-99590000D02*
X125480000Y-102500000D01*
%TO.N,Net-(D_re1-Pad2)*%
X63250000Y-122430000D02*
X66650000Y-119030000D01*
X66650000Y-119030000D02*
X66650000Y-90700000D01*
X66650000Y-90700000D02*
X71470000Y-85880000D01*
X90300000Y-85880000D02*
X93250000Y-88830000D01*
X71470000Y-85880000D02*
X90300000Y-85880000D01*
X93250000Y-88830000D02*
X93250000Y-99670000D01*
X93250000Y-99670000D02*
X90420000Y-102500000D01*
X90420000Y-102500000D02*
X87930000Y-102500000D01*
%TO.N,col0*%
X82250000Y-102500000D02*
X81065000Y-103685000D01*
X81065000Y-103685000D02*
X81065000Y-111835000D01*
%TO.N,row1*%
X71750000Y-130160000D02*
X72240000Y-130160000D01*
X72240000Y-130160000D02*
X74825000Y-127575000D01*
X74825000Y-111350000D02*
X74315000Y-110840000D01*
X74825000Y-127575000D02*
X74825000Y-111350000D01*
X74315000Y-110840000D02*
X72920000Y-110840000D01*
%TO.N,row2*%
X75025000Y-108300000D02*
X72920000Y-108300000D01*
X76050000Y-109325000D02*
X75025000Y-108300000D01*
X72180000Y-134040000D02*
X76050000Y-130170000D01*
X76050000Y-130170000D02*
X76050000Y-109325000D01*
%TO.N,col0*%
X77675000Y-130885000D02*
X81065000Y-130885000D01*
X77745000Y-111835000D02*
X77200000Y-112380000D01*
X77200000Y-112380000D02*
X77200000Y-130410000D01*
X81065000Y-111835000D02*
X77745000Y-111835000D01*
X77200000Y-130410000D02*
X77675000Y-130885000D01*
%TO.N,col1*%
X96690000Y-111835000D02*
X96125000Y-112400000D01*
X96125000Y-112400000D02*
X96125000Y-130325000D01*
X96125000Y-130325000D02*
X96685000Y-130885000D01*
X96685000Y-130885000D02*
X100115000Y-130885000D01*
X100115000Y-111835000D02*
X96690000Y-111835000D01*
%TO.N,col2*%
X115200000Y-112370000D02*
X115200000Y-130250000D01*
X115200000Y-130250000D02*
X115835000Y-130885000D01*
X119165000Y-111835000D02*
X115735000Y-111835000D01*
X115735000Y-111835000D02*
X115200000Y-112370000D01*
X115835000Y-130885000D02*
X119165000Y-130885000D01*
%TD*%
M02*
